<svg xmlns="http://www.w3.org/2000/svg" width="960" height="960" viewBox="0 0 9600 9600"><path d="M5436 7659c-206-13-463-53-616-95-55-15-55-15-53-2807s2-2792 43-2795c33-3 62 8 158 56 793 400 1404 1111 1645 1912 19 63 43 150 53 192 10 43 22 78 27 78s253-79 551-175c345-111 557-175 583-175 42 0 42 0 97 114 150 311 215 628 203 990-6 184-27 313-75 476-40 132-128 328-187 414-28 42-26 48 20 64 17 6 136 54 265 107s243 99 253 102c12 4 17 16 17 45 0 31-11 55-57 121-693 1001-1663 1456-2927 1376zm412-584c116-53 227-204 273-370 78-286-65-626-300-716-159-60-313 25-447 247-43 72-53 105-65 214-30 290 121 574 344 646 54 18 127 10 195-21z" fill="#F8B94C"/><path d="M3615 7660c-997-70-1807-540-2383-1382-41-60-52-85-52-115 0-39 0-39 258-142 141-57 272-110 290-118 33-14 33-14 7-56-112-182-199-416-242-644-25-136-25-523 0-668 35-200 103-407 194-591 47-94 47-94 87-94 36 0 137 30 606 182 531 171 531 171 534 166 1-1 19-67 39-145 97-377 280-753 520-1072 190-251 444-497 712-690 233-168 531-331 604-331 29 0 41 4 41 14 0 8-7 16-15 18-14 3-16 302-18 2765-2 2287 0 2763 11 2763 25 0 7 34-23 42-281 78-814 122-1170 98zm513-585c163-74 295-314 295-535-1-247-138-480-322-551-95-36-190-18-289 55-43 31-132 134-132 151 0 4-13 25-28 48-40 58-51 97-62 207-24 249 76 488 250 600 101 65 184 72 288 25z" fill="#F39636"/><path xmlns="http://www.w3.org/2000/svg" d="M3685 6751c-46-21-101-79-122-130-12-28-13-58-8-145 9-136 26-204 65-261 17-24 30-48 30-52 0-5 15-26 34-46 32-35 37-37 93-37 141 0 228 94 253 273 19 133-17 280-85 351-62 63-178 85-260 47zm1720 0c-46-21-101-79-122-130-18-42-10-218 12-305 15-56 75-163 116-208 24-25 34-28 86-28 117 0 202 70 239 198 24 82 16 270-14 337-60 132-197 191-317 136z" fill="#FFF"/><path d="M3903 7126c-95-31-202-123-257-223-59-105-103-285-94-389 3-39 3-38 25 31 26 83 78 149 137 176 52 23 80 23 132 0 80-36 137-125 152-237 21-164-47-315-162-359-54-21-99-15-150 20-20 13-36 22-36 19 0-17 90-120 132-150 253-186 565-22 655 345 25 101 22 276-5 374-49 174-156 318-277 373-69 32-188 41-252 20zm1720 0c-98-32-200-120-257-222-59-106-97-257-95-381 1-58 1-58 25 20 20 62 34 88 72 127 84 87 169 90 257 9 60-55 87-124 93-230 8-151-44-265-140-313-29-14-62-26-75-26-32 0-93 26-122 53s-20 9 32-61c104-138 275-198 425-148 145 49 271 209 319 405 25 100 22 276-6 376-47 169-157 317-276 371-69 32-188 41-252 20z" fill="#000"/></svg>